<svg width="800" height="498" viewBox="0 0 800 498" fill="none" xmlns="http://www.w3.org/2000/svg">
<path d="M0 497.055C7.86847 264.801 149.054 78.7299 381.487 0L379.243 106.592C217.299 185.105 169.816 254.902 117.812 397.195H280.505V355.68H177.279C217.372 254.662 274.29 209.188 381.487 150.351V497.055H0Z" fill="#B7FA20"/>
<path d="M800 -3.05176e-05C792.132 232.253 650.946 418.325 418.513 497.055L420.757 390.463C582.701 311.95 630.184 242.153 682.188 99.8597L418.513 99.8597V-3.05176e-05L800 -3.05176e-05Z" fill="#B7FA20"/>
<path d="M487.021 197.125L468.63 178.734C464.725 174.829 464.725 168.497 468.63 164.592L487.021 146.201C490.926 142.296 497.258 142.296 501.163 146.201L519.554 164.592C523.459 168.497 523.459 174.829 519.554 178.734L501.163 197.125C497.258 201.03 490.926 201.03 487.021 197.125Z" fill="#B7FA20"/>
<path d="M442.853 243.133L424.462 224.742C420.557 220.836 420.557 214.505 424.462 210.6L442.853 192.209C446.758 188.303 453.09 188.303 456.995 192.209L475.386 210.6C479.291 214.505 479.291 220.836 475.386 224.742L456.995 243.133C453.09 247.038 446.758 247.038 442.853 243.133Z" fill="#B7FA20"/>
<path d="M487.021 289.142L468.63 270.751C464.725 266.846 464.725 260.514 468.63 256.609L487.021 238.218C490.926 234.313 497.258 234.313 501.163 238.218L519.554 256.609C523.459 260.514 523.459 266.846 519.554 270.751L501.163 289.142C497.258 293.047 490.926 293.047 487.021 289.142Z" fill="#B7FA20"/>
<path d="M534.87 243.133L516.479 224.742C512.574 220.836 512.574 214.505 516.479 210.6L534.87 192.209C538.775 188.303 545.107 188.303 549.012 192.209L567.403 210.6C571.308 214.505 571.308 220.836 567.403 224.742L549.012 243.133C545.107 247.038 538.775 247.038 534.87 243.133Z" fill="#B7FA20"/>
<path d="M298.079 267.031V239.868C298.079 238.763 298.974 237.868 300.079 237.868H329.009C330.114 237.868 331.009 238.763 331.009 239.868V267.031C331.009 268.136 331.905 269.031 333.009 269.031H359.29C360.395 269.031 361.29 269.927 361.29 271.031V299.714C361.29 300.819 360.395 301.714 359.29 301.714H333.009C331.905 301.714 331.009 302.61 331.009 303.714V330.118C331.009 331.222 330.114 332.118 329.009 332.118H300.079C298.974 332.118 298.079 331.222 298.079 330.118V303.714C298.079 302.61 297.183 301.714 296.079 301.714H269.041C267.936 301.714 267.041 300.819 267.041 299.714V271.031C267.041 269.927 267.936 269.031 269.041 269.031H296.079C297.183 269.031 298.079 268.136 298.079 267.031Z" fill="#121C3A"/>
</svg>
