<svg width="1000" height="1000" viewBox="0 0 1000 1000" fill="none" xmlns="http://www.w3.org/2000/svg">
<rect width="1000" height="1000" fill="#121C3A"/>
<path d="M100 748.055C107.868 515.801 249.054 329.73 481.487 251L479.243 357.592C317.299 436.105 269.816 505.902 217.812 648.195H380.505V606.68H277.279C317.372 505.662 374.29 460.188 481.487 401.351V748.055H100Z" fill="#B7FA20"/>
<path d="M900 251C892.132 483.253 750.946 669.325 518.513 748.055L520.757 641.463C682.701 562.95 730.184 493.153 782.188 350.86L518.513 350.86V251L900 251Z" fill="#B7FA20"/>
<path d="M587.021 448.125L568.63 429.734C564.725 425.829 564.725 419.497 568.63 415.592L587.021 397.201C590.926 393.296 597.258 393.296 601.163 397.201L619.554 415.592C623.459 419.497 623.459 425.829 619.554 429.734L601.163 448.125C597.258 452.03 590.926 452.03 587.021 448.125Z" fill="#B7FA20"/>
<path d="M542.853 494.133L524.462 475.742C520.557 471.836 520.557 465.505 524.462 461.6L542.853 443.209C546.758 439.303 553.09 439.303 556.995 443.209L575.386 461.6C579.291 465.505 579.291 471.836 575.386 475.742L556.995 494.133C553.09 498.038 546.758 498.038 542.853 494.133Z" fill="#B7FA20"/>
<path d="M587.021 540.142L568.63 521.751C564.725 517.846 564.725 511.514 568.63 507.609L587.021 489.218C590.926 485.313 597.258 485.313 601.163 489.218L619.554 507.609C623.459 511.514 623.459 517.846 619.554 521.751L601.163 540.142C597.258 544.047 590.926 544.047 587.021 540.142Z" fill="#B7FA20"/>
<path d="M634.87 494.133L616.479 475.742C612.574 471.836 612.574 465.505 616.479 461.6L634.87 443.209C638.775 439.303 645.107 439.303 649.012 443.209L667.403 461.6C671.308 465.505 671.308 471.836 667.403 475.742L649.012 494.133C645.107 498.038 638.775 498.038 634.87 494.133Z" fill="#B7FA20"/>
<path d="M398.079 518.031V490.868C398.079 489.763 398.974 488.868 400.079 488.868H429.009C430.114 488.868 431.009 489.763 431.009 490.868V518.031C431.009 519.136 431.905 520.031 433.009 520.031H459.29C460.395 520.031 461.29 520.927 461.29 522.031V550.714C461.29 551.819 460.395 552.714 459.29 552.714H433.009C431.905 552.714 431.009 553.61 431.009 554.714V581.118C431.009 582.222 430.114 583.118 429.009 583.118H400.079C398.974 583.118 398.079 582.222 398.079 581.118V554.714C398.079 553.61 397.183 552.714 396.079 552.714H369.041C367.936 552.714 367.041 551.819 367.041 550.714V522.031C367.041 520.927 367.936 520.031 369.041 520.031H396.079C397.183 520.031 398.079 519.136 398.079 518.031Z" fill="#121C3A"/>
</svg>
